<?xml version="1.0" encoding="UTF-8" standalone="no"?>
<!-- Created with Inkscape (http://www.inkscape.org/) -->

<svg
   xmlns:dc="http://purl.org/dc/elements/1.1/"
   xmlns:cc="http://creativecommons.org/ns#"
   xmlns:rdf="http://www.w3.org/1999/02/22-rdf-syntax-ns#"
   xmlns:svg="http://www.w3.org/2000/svg"
   xmlns="http://www.w3.org/2000/svg"
   xmlns:sodipodi="http://sodipodi.sourceforge.net/DTD/sodipodi-0.dtd"
   xmlns:inkscape="http://www.inkscape.org/namespaces/inkscape"
   width="210mm"
   height="297mm"
   viewBox="0 0 210 297"
   version="1.1"
   id="svg821"
   inkscape:version="0.92.5 (2060ec1f9f, 2020-04-08)"
   sodipodi:docname="logo.svg">
  <defs
     id="defs815" />
  <sodipodi:namedview
     id="base"
     pagecolor="#ffffff"
     bordercolor="#666666"
     borderopacity="1.0"
     inkscape:pageopacity="0.0"
     inkscape:pageshadow="2"
     inkscape:zoom="1.4"
     inkscape:cx="299.7362"
     inkscape:cy="598.653"
     inkscape:document-units="mm"
     inkscape:current-layer="layer1"
     showgrid="false"
     inkscape:window-width="1920"
     inkscape:window-height="1031"
     inkscape:window-x="0"
     inkscape:window-y="25"
     inkscape:window-maximized="1" />
  <metadata
     id="metadata818">
    <rdf:RDF>
      <cc:Work
         rdf:about="">
        <dc:format>image/svg+xml</dc:format>
        <dc:type
           rdf:resource="http://purl.org/dc/dcmitype/StillImage" />
        <dc:title></dc:title>
      </cc:Work>
    </rdf:RDF>
  </metadata>
  <g
     inkscape:label="Layer 1"
     inkscape:groupmode="layer"
     id="layer1">
    <text
       xml:space="preserve"
       style="font-style:normal;font-variant:normal;font-weight:normal;font-stretch:normal;font-size:118.45053864px;line-height:1.25;font-family:'MesloLGS NF';-inkscape-font-specification:'MesloLGS NF, Normal';font-variant-ligatures:normal;font-variant-caps:normal;font-variant-numeric:normal;font-feature-settings:normal;text-align:start;letter-spacing:0px;word-spacing:0px;writing-mode:lr-tb;text-anchor:start;fill:#fffffa;fill-opacity:1;stroke:none;stroke-width:2.96126342;"
       x="65.662521"
       y="193.43452"
       id="text1387"
       inkscape:export-xdpi="46.00428"
       inkscape:export-ydpi="46.00428"><tspan
         sodipodi:role="line"
         id="tspan1385"
         x="65.662521"
         y="193.43452"
         style="font-style:normal;font-variant:normal;font-weight:normal;font-stretch:normal;font-size:118.45053864px;font-family:'MesloLGS NF';-inkscape-font-specification:'MesloLGS NF, Normal';font-variant-ligatures:normal;font-variant-caps:normal;font-variant-numeric:normal;font-feature-settings:normal;text-align:start;writing-mode:lr-tb;text-anchor:start;stroke-width:2.96126342;fill:#fffffa;fill-opacity:1;">#</tspan></text>
    <path
       id="path97"
       style="fill:#ffffff;fill-opacity:1;stroke:none;stroke-width:0.55927813;stroke-linecap:butt;stroke-linejoin:miter;stroke-miterlimit:4;stroke-dasharray:none;stroke-opacity:1;"
       d="m 134.21457,147.81568 c -1.70778,0.0237 -4.57973,1.53977 -4.57973,1.53977 -1.65192,0.5854 -6.56538,4.16263 -7.03081,6.892 -0.45951,2.69455 0.93885,3.80354 4.12026,4.04011 3.1814,0.23657 3.89901,-2.25304 4.76005,-5.29794 0.86105,-3.04489 4.74878,-5.43524 3.80234,-6.7767 -0.20702,-0.29344 -0.59392,-0.40384 -1.07211,-0.39724 z m -2.66669,1.30584 a 0.50661373,0.50661373 0 0 1 0.50659,0.50662 0.50661373,0.50661373 0 0 1 -0.50659,0.50659 0.50661373,0.50661373 0 0 1 -0.50661,-0.50659 0.50661373,0.50661373 0 0 1 0.50661,-0.50662 z"
       inkscape:connector-curvature="0"
       inkscape:export-xdpi="46.00428"
       inkscape:export-ydpi="46.00428" />
    <path
       style="fill:none;stroke:#ffffff;stroke-width:0.82168543;stroke-linecap:round;stroke-linejoin:miter;stroke-miterlimit:4;stroke-dasharray:none;stroke-opacity:1;"
       d="m 129.07469,149.59757 c 0,0 -0.37633,-1.40879 -1.94448,-1.27337 -1.70154,0.14697 -2.88104,2.41125 -0.14256,3.69719"
       id="path924"
       inkscape:connector-curvature="0"
       inkscape:export-xdpi="46.00428"
       inkscape:export-ydpi="46.00428" />
    <path
       style="fill:none;stroke:#ffffff;stroke-width:0.82168543;stroke-linecap:round;stroke-linejoin:miter;stroke-miterlimit:4;stroke-dasharray:none;stroke-opacity:1;"
       d="m 131.01713,148.87199 c 0,0 -0.14367,-0.69035 -0.89867,-1.03903 -0.755,-0.34866 -1.78087,-0.13618 -2.05631,0.42757"
       id="path926"
       inkscape:connector-curvature="0"
       inkscape:export-xdpi="46.00428"
       inkscape:export-ydpi="46.00428" />
    <path
       style="fill:none;stroke:#ffffff;stroke-width:0.82169998;stroke-linecap:round;stroke-linejoin:miter;stroke-miterlimit:4;stroke-dasharray:none;stroke-opacity:1;"
       d="m 122.59135,158.055 c 0,0 -1.48904,0.8031 -2.23989,-0.23736 -0.75085,-1.04045 -0.0528,-2.1457 0.74152,-2.77313 0.86895,-0.68629 3.03928,-1.87817 2.30934,-3.81114 -0.6743,-1.78563 -2.60242,-1.3366 -3.19637,-0.45702 -0.52299,0.77449 -0.3022,1.93124 0.69861,2.08037 1.0008,0.14912 1.29498,-0.76346 1.29498,-0.76346"
       id="path928"
       inkscape:connector-curvature="0"
       inkscape:export-xdpi="46.00428"
       inkscape:export-ydpi="46.00428" />
  </g>
</svg>
